<?xml version="1.0" encoding="UTF-8" standalone="no"?>
<svg
   xmlns:dc="http://purl.org/dc/elements/1.1/"
   xmlns:cc="http://creativecommons.org/ns#"
   xmlns:rdf="http://www.w3.org/1999/02/22-rdf-syntax-ns#"
   xmlns:svg="http://www.w3.org/2000/svg"
   xmlns="http://www.w3.org/2000/svg"
   xmlns:sodipodi="http://sodipodi.sourceforge.net/DTD/sodipodi-0.dtd"
   xmlns:inkscape="http://www.inkscape.org/namespaces/inkscape"
   viewBox="0 0 17 17"
   height="17"
   width="17"
   version="1.1"
   id="svg10"
   sodipodi:docname="grocery_11.svg"
   inkscape:version="0.92.3 (unknown)">
  <metadata
     id="metadata16">
    <rdf:RDF>
      <cc:Work
         rdf:about="">
        <dc:format>image/svg+xml</dc:format>
        <dc:type
           rdf:resource="http://purl.org/dc/dcmitype/StillImage" />
      </cc:Work>
    </rdf:RDF>
  </metadata>
  <defs
     id="defs14" />
  <sodipodi:namedview
     pagecolor="#ffffff"
     bordercolor="#666666"
     borderopacity="1"
     objecttolerance="10"
     gridtolerance="10"
     guidetolerance="10"
     inkscape:pageopacity="0"
     inkscape:pageshadow="2"
     inkscape:window-width="1920"
     inkscape:window-height="1022"
     id="namedview12"
     showgrid="false"
     inkscape:zoom="27.764706"
     inkscape:cx="-0.80635352"
     inkscape:cy="6.0391849"
     inkscape:window-x="0"
     inkscape:window-y="0"
     inkscape:window-maximized="1"
     inkscape:current-layer="svg10" />
  <title
     id="title2">grocery-11.svg</title>
  <rect
     fill="none"
     x="0"
     y="0"
     width="17"
     height="17"
     id="rect4" />
  <path
     fill="rgba(255,255,255,0.25)"
     transform="translate(3 3)"
     d="M9.75,1.5C9.7464,1.4999,9.4324,1.4942,9.1191,1.6875C8.8041,1.8819,8.5,2.3013,8.5,3H8.2539H1l0.75,3.5  C1.8571,7,2.5,7,2.5,7h6c0,0-0.0027,0.2466-0.1523,0.4961S7.9306,8,7.25,8H2C1.6619,7.9952,1.6619,8.5048,2,8.5h1.25h4  c0.8194,0,1.302-0.3705,1.5273-0.7461C9.0027,7.3784,9,7,9,7V3c0-0.567,0.1959-0.7725,0.3809-0.8867  C9.5659,1.9991,9.7461,2,9.7461,2C9.7474,2,9.7487,2,9.75,2h0.5c0.3381,0.0048,0.3381-0.5048,0-0.5H9.7539H9.75z M7.25,8.5  C6.8358,8.5,6.5,8.8358,6.5,9.25S6.8358,10,7.25,10S8,9.6642,8,9.25S7.6642,8.5,7.25,8.5z M3.25,8.5C2.8358,8.5,2.5,8.8358,2.5,9.25  S2.8358,10,3.25,10S4,9.6642,4,9.25S3.6642,8.5,3.25,8.5z"
     style="stroke-linejoin:round;stroke-miterlimit:4px;"
     stroke="rgba(255,255,255,0.25)"
     stroke-width="2"
     id="path6" />
  <path
     fill="#444444"
     transform="translate(3 3)"
     d="M9.75,1.5C9.7464,1.4999,9.4324,1.4942,9.1191,1.6875C8.8041,1.8819,8.5,2.3013,8.5,3H8.2539H1l0.75,3.5  C1.8571,7,2.5,7,2.5,7h6c0,0-0.0027,0.2466-0.1523,0.4961S7.9306,8,7.25,8H2C1.6619,7.9952,1.6619,8.5048,2,8.5h1.25h4  c0.8194,0,1.302-0.3705,1.5273-0.7461C9.0027,7.3784,9,7,9,7V3c0-0.567,0.1959-0.7725,0.3809-0.8867  C9.5659,1.9991,9.7461,2,9.7461,2C9.7474,2,9.7487,2,9.75,2h0.5c0.3381,0.0048,0.3381-0.5048,0-0.5H9.7539H9.75z M7.25,8.5  C6.8358,8.5,6.5,8.8358,6.5,9.25S6.8358,10,7.25,10S8,9.6642,8,9.25S7.6642,8.5,7.25,8.5z M3.25,8.5C2.8358,8.5,2.5,8.8358,2.5,9.25  S2.8358,10,3.25,10S4,9.6642,4,9.25S3.6642,8.5,3.25,8.5z"
     id="path8"
     style="fill:#c7762f;fill-opacity:1;stroke:none;stroke-opacity:1;paint-order:normal;stroke-linejoin:miter;stroke-width:0.1;stroke-miterlimit:4;stroke-dasharray:none" />
</svg>
